<svg width="25" height="25" viewBox="0 0 25 25" fill="none" xmlns="http://www.w3.org/2000/svg">
<path fill-rule="evenodd" clip-rule="evenodd" d="M13.0533 11.7369L17.7225 16.4061L16.7049 17.4249L11.6133 12.3333V5.13325H13.0533V11.7369ZM12.3333 24.3333C5.70574 24.3333 0.333344 18.9609 0.333344 12.3333C0.333344 5.70565 5.70574 0.333252 12.3333 0.333252C18.9609 0.333252 24.3333 5.70565 24.3333 12.3333C24.3333 18.9609 18.9609 24.3333 12.3333 24.3333ZM12.3333 22.8933C15.134 22.8933 17.82 21.7807 19.8004 19.8003C21.7808 17.8199 22.8933 15.1339 22.8933 12.3333C22.8933 9.53257 21.7808 6.84659 19.8004 4.8662C17.82 2.88582 15.134 1.77325 12.3333 1.77325C9.53266 1.77325 6.84668 2.88582 4.8663 4.8662C2.88591 6.84659 1.77334 9.53257 1.77334 12.3333C1.77334 15.1339 2.88591 17.8199 4.8663 19.8003C6.84668 21.7807 9.53266 22.8933 12.3333 22.8933Z" fill="white"/>
</svg>
