<svg width="25" height="25" viewBox="0 0 25 25" fill="none" xmlns="http://www.w3.org/2000/svg">
<path fill-rule="evenodd" clip-rule="evenodd" d="M12.9833 11.7618L17.6525 16.431L16.6349 17.4498L11.5433 12.3582V5.15815H12.9833V11.7618ZM12.2633 24.3582C5.63574 24.3582 0.263336 18.9858 0.263336 12.3582C0.263336 5.73055 5.63574 0.358154 12.2633 0.358154C18.8909 0.358154 24.2633 5.73055 24.2633 12.3582C24.2633 18.9858 18.8909 24.3582 12.2633 24.3582ZM12.2633 22.9182C15.064 22.9182 17.75 21.8056 19.7304 19.8252C21.7108 17.8448 22.8233 15.1588 22.8233 12.3582C22.8233 9.55747 21.7108 6.87149 19.7304 4.89111C17.75 2.91072 15.064 1.79815 12.2633 1.79815C9.46265 1.79815 6.77667 2.91072 4.79629 4.89111C2.8159 6.87149 1.70334 9.55747 1.70334 12.3582C1.70334 15.1588 2.8159 17.8448 4.79629 19.8252C6.77667 21.8056 9.46265 22.9182 12.2633 22.9182Z" fill="#B0AAAA"/>
</svg>
