<svg width="25" height="25" viewBox="0 0 25 25" fill="none" xmlns="http://www.w3.org/2000/svg">
<path d="M17.5996 1.65511C17.5996 0.397316 16.0969 -0.253428 15.1794 0.606565L9.50323 5.92979C9.13023 6.2793 8.63818 6.47374 8.12701 6.47361H4.66519C3.67418 6.47361 2.72376 6.86728 2.02301 7.56803C1.32227 8.26878 0.928589 9.2192 0.928589 10.2102V14.2251C0.928589 15.2161 1.32227 16.1665 2.02301 16.8672C2.72376 17.568 3.67418 17.9617 4.66519 17.9617H8.12816C8.63864 17.9617 9.13072 18.1571 9.50323 18.5055L15.1794 23.8241C16.0981 24.6841 17.5996 24.0333 17.5996 22.7755V1.65511ZM10.6829 7.18759L15.875 2.31736V22.111L10.6829 17.2454C9.99034 16.5967 9.07701 16.2358 8.12816 16.2359H4.66519C4.13157 16.2359 3.61981 16.0239 3.24248 15.6466C2.86516 15.2693 2.65318 14.7575 2.65318 14.2239V10.2091C2.65318 9.09843 3.55456 8.19705 4.66519 8.19705H8.12701C9.07657 8.19679 9.99041 7.83504 10.6829 7.18529M22.0295 5.6642C21.9615 5.57361 21.8764 5.49729 21.779 5.4396C21.6815 5.3819 21.5737 5.34397 21.4616 5.32795C21.3495 5.31194 21.2353 5.31816 21.1256 5.34626C21.0159 5.37437 20.9129 5.4238 20.8223 5.49174C20.7317 5.55969 20.6554 5.64481 20.5977 5.74225C20.54 5.83968 20.502 5.94753 20.486 6.05963C20.47 6.17173 20.4762 6.28589 20.5043 6.39558C20.5324 6.50528 20.5819 6.60836 20.6498 6.69895C21.8454 8.28961 22.49 10.2266 22.4859 12.2165C22.4859 14.286 21.803 16.1945 20.6498 17.7317C20.5819 17.8223 20.5324 17.9254 20.5043 18.0351C20.4762 18.1448 20.47 18.2589 20.486 18.371C20.502 18.4831 20.54 18.591 20.5977 18.6884C20.6554 18.7859 20.7317 18.871 20.8223 18.9389C20.9129 19.0069 21.0159 19.0563 21.1256 19.0844C21.2353 19.1125 21.3495 19.1187 21.4616 19.1027C21.5737 19.0867 21.6815 19.0488 21.779 18.9911C21.8764 18.9334 21.9615 18.8571 22.0295 18.7665C23.4485 16.8779 24.2141 14.5787 24.2105 12.2165C24.2141 9.85424 23.4485 7.55505 22.0295 5.6665" fill="white"/>
</svg>
