<svg width="25" height="25" viewBox="0 0 25 25" fill="none" xmlns="http://www.w3.org/2000/svg">
<path d="M17.5296 1.68002C17.5296 0.422218 16.0269 -0.228526 15.1094 0.631468L9.43323 5.95469C9.06022 6.3042 8.56817 6.49864 8.05701 6.49851H4.59519C3.60418 6.49851 2.65376 6.89219 1.95301 7.59294C1.25226 8.29369 0.858582 9.24411 0.858582 10.2351V14.25C0.858582 15.241 1.25226 16.1914 1.95301 16.8921C2.65376 17.5929 3.60418 17.9866 4.59519 17.9866H8.05816C8.56863 17.9866 9.06072 18.182 9.43323 18.5304L15.1094 23.849C16.028 24.709 17.5296 24.0583 17.5296 22.8005V1.68002ZM10.6128 7.21249L15.805 2.34226V22.1359L10.6128 17.2703C9.92033 16.6216 9.007 16.2607 8.05816 16.2608H4.59519C4.06157 16.2608 3.5498 16.0488 3.17247 15.6715C2.79515 15.2942 2.58317 14.7824 2.58317 14.2488V10.234C2.58317 9.12333 3.48455 8.22195 4.59519 8.22195H8.05701C9.00656 8.22169 9.9204 7.85994 10.6128 7.21019M21.9595 5.6891C21.8915 5.59851 21.8064 5.52219 21.709 5.4645C21.6115 5.40681 21.5037 5.36887 21.3916 5.35285C21.2795 5.33684 21.1653 5.34306 21.0556 5.37117C20.9459 5.39927 20.8429 5.4487 20.7523 5.51665C20.6617 5.58459 20.5854 5.66971 20.5277 5.76715C20.47 5.86459 20.432 5.97243 20.416 6.08453C20.4 6.19663 20.4062 6.31079 20.4343 6.42049C20.4624 6.53018 20.5119 6.63327 20.5798 6.72386C21.7754 8.31451 22.42 10.2515 22.4159 12.2414C22.4159 14.3109 21.733 16.2194 20.5798 17.7566C20.5119 17.8472 20.4624 17.9503 20.4343 18.06C20.4062 18.1697 20.4 18.2838 20.416 18.3959C20.432 18.508 20.47 18.6159 20.5277 18.7133C20.5854 18.8108 20.6617 18.8959 20.7523 18.9638C20.8429 19.0318 20.9459 19.0812 21.0556 19.1093C21.1653 19.1374 21.2795 19.1436 21.3916 19.1276C21.5037 19.1116 21.6115 19.0737 21.709 19.016C21.8064 18.9583 21.8915 18.882 21.9595 18.7914C23.3785 16.9028 24.1441 14.6036 24.1405 12.2414C24.1441 9.87914 23.3785 7.57995 21.9595 5.69141" fill="#B0AAAA"/>
</svg>
