<svg width="24" height="25" viewBox="0 0 24 25" fill="none" xmlns="http://www.w3.org/2000/svg">
<path d="M14.6805 15.6577C14.1372 14.5516 13.246 13.82 12.007 13.4627C10.7679 13.1054 9.48729 12.9272 8.16504 12.928C6.85012 12.928 5.56335 13.1062 4.30473 13.4627C3.04528 13.82 2.16024 14.5516 1.64961 15.6577H14.6805ZM0.0712311 16.8813C0.0712311 15.0974 0.912628 13.7886 2.59542 12.9549C4.27822 12.1213 6.13475 11.7044 8.16504 11.7044C10.1953 11.7044 12.0519 12.1213 13.7347 12.9549C15.4174 13.7886 16.2588 15.0974 16.2588 16.8813H0.0712311ZM0.0712311 20.9276V19.704H16.2588V20.9276H0.0712311ZM18.7047 24.9751V23.7515H20.4177L22.1307 7.09286H11.1052L10.9401 5.86931H16.5868V0.975098H17.8103V5.86931H23.4582L21.6278 23.8604C21.5821 24.1973 21.4361 24.4673 21.1898 24.6704C20.9434 24.8735 20.6518 24.9751 20.3149 24.9751H18.7047ZM0.823716 24.9751C0.610002 24.9751 0.430956 24.9029 0.286576 24.7585C0.142197 24.6141 0.0700073 24.4355 0.0700073 24.2226V23.7515H16.2588V24.2226C16.2588 24.4355 16.1867 24.6141 16.0423 24.7585C15.8979 24.9029 15.7193 24.9751 15.5064 24.9751H0.823716Z" fill="white"/>
</svg>
