<svg width="24" height="24" viewBox="0 0 24 24" fill="none" xmlns="http://www.w3.org/2000/svg">
<path d="M14.6105 14.6826C14.0672 13.5765 13.176 12.8449 11.937 12.4876C10.6979 12.1303 9.41728 11.9521 8.09503 11.9529C6.78012 11.9529 5.49335 12.1311 4.23472 12.4876C2.97527 12.8449 2.09024 13.5765 1.57961 14.6826H14.6105ZM0.00122376 15.9062C0.00122376 14.1223 0.842621 12.8135 2.52541 11.9798C4.20821 11.1462 6.06475 10.7293 8.09503 10.7293C10.1253 10.7293 11.9818 11.1462 13.6646 11.9798C15.3474 12.8135 16.1888 14.1223 16.1888 15.9062H0.00122376ZM0.00122376 19.9525V18.7289H16.1888V19.9525H0.00122376ZM18.6347 24V22.7764H20.3477L22.0607 6.11777H11.0352L10.87 4.89421H16.5167V0H17.7403V4.89421H23.3882L21.5578 22.8853C21.5121 23.2222 21.3661 23.4922 21.1198 23.6953C20.8734 23.8984 20.5818 24 20.2449 24H18.6347ZM0.753709 24C0.539995 24 0.360948 23.9278 0.216569 23.7834C0.0721897 23.6391 0 23.4604 0 23.2475V22.7764H16.1888V23.2475C16.1888 23.4604 16.1166 23.6391 15.9723 23.7834C15.8279 23.9278 15.6492 24 15.4363 24H0.753709Z" fill="#B0AAAA"/>
</svg>
