<svg width="31" height="25" viewBox="0 0 31 25" fill="none" xmlns="http://www.w3.org/2000/svg">
<path d="M4.48864 6.8125C4.48864 6.16783 4.61561 5.52947 4.86232 4.93387C5.10902 4.33827 5.47062 3.7971 5.92648 3.34125C6.38233 2.8854 6.9235 2.5238 7.5191 2.27709C8.1147 2.03039 8.75306 1.90341 9.39773 1.90341C10.0424 1.90341 10.6808 2.03039 11.2764 2.27709C11.872 2.5238 12.4131 2.8854 12.869 3.34125C13.3248 3.7971 13.6864 4.33827 13.9331 4.93387C14.1798 5.52947 14.3068 6.16783 14.3068 6.8125C14.3068 8.11447 13.7896 9.36312 12.869 10.2838C11.9483 11.2044 10.6997 11.7216 9.39773 11.7216C8.09576 11.7216 6.84711 11.2044 5.92648 10.2838C5.00584 9.36312 4.48864 8.11447 4.48864 6.8125ZM9.39773 0.8125C7.80643 0.8125 6.28031 1.44464 5.15509 2.56986C4.02987 3.69508 3.39773 5.2212 3.39773 6.8125C3.39773 8.4038 4.02987 9.92992 5.15509 11.0551C6.28031 12.1804 7.80643 12.8125 9.39773 12.8125C10.989 12.8125 12.5152 12.1804 13.6404 11.0551C14.7656 9.92992 15.3977 8.4038 15.3977 6.8125C15.3977 5.2212 14.7656 3.69508 13.6404 2.56986C12.5152 1.44464 10.989 0.8125 9.39773 0.8125ZM19.7614 8.44886C19.7614 7.58088 20.1062 6.74845 20.7199 6.1347C21.3337 5.52094 22.1661 5.17614 23.0341 5.17614C23.9021 5.17614 24.7345 5.52094 25.3483 6.1347C25.962 6.74845 26.3068 7.58088 26.3068 8.44886C26.3068 9.31685 25.962 10.1493 25.3483 10.763C24.7345 11.3768 23.9021 11.7216 23.0341 11.7216C22.1661 11.7216 21.3337 11.3768 20.7199 10.763C20.1062 10.1493 19.7614 9.31685 19.7614 8.44886ZM23.0341 4.08523C21.8768 4.08523 20.7669 4.54497 19.9485 5.36331C19.1302 6.18165 18.6705 7.29156 18.6705 8.44886C18.6705 9.60617 19.1302 10.7161 19.9485 11.5344C20.7669 12.3528 21.8768 12.8125 23.0341 12.8125C24.1914 12.8125 25.3013 12.3528 26.1196 11.5344C26.938 10.7161 27.3977 9.60617 27.3977 8.44886C27.3977 7.29156 26.938 6.18165 26.1196 5.36331C25.3013 4.54497 24.1914 4.08523 23.0341 4.08523ZM3.39773 14.9943C2.52975 14.9943 1.69732 15.3391 1.08356 15.9529C0.469804 16.5666 0.125 17.3991 0.125 18.267C0.125 19.4845 0.579909 21.1361 2.00027 22.4812C3.42391 23.8296 5.75409 24.8125 9.39664 24.8125C13.0392 24.8125 15.3715 23.8307 16.7952 22.4812C18.2155 21.1361 18.6705 19.4845 18.6705 18.267C18.6705 17.3991 18.3257 16.5666 17.7119 15.9529C17.0981 15.3391 16.2657 14.9943 15.3977 14.9943H3.39773ZM1.21591 18.267C1.21591 17.6884 1.44578 17.1334 1.85495 16.7243C2.26412 16.3151 2.81907 16.0852 3.39773 16.0852H15.3977C15.9764 16.0852 16.5313 16.3151 16.9405 16.7243C17.3497 17.1334 17.5795 17.6884 17.5795 18.267C17.5795 19.2314 17.2163 20.5798 16.0457 21.6892C14.8785 22.7954 12.845 23.7216 9.39773 23.7216C5.95045 23.7216 3.917 22.7943 2.74973 21.6892C1.57918 20.5798 1.21591 19.2314 1.21591 18.267ZM19.721 21.0903C19.5828 21.419 19.4148 21.7463 19.217 22.0721C20.2272 22.418 21.4828 22.6307 23.0341 22.6307C26.1345 22.6307 28.0534 21.783 29.2021 20.7107C30.3388 19.6503 30.6705 18.4132 30.6705 17.7216C30.6705 16.9983 30.3831 16.3046 29.8717 15.7931C29.3602 15.2817 28.6665 14.9943 27.9432 14.9943H19.0566C19.349 15.3216 19.5988 15.6881 19.7963 16.0852H27.9432C28.3772 16.0852 28.7934 16.2576 29.1003 16.5645C29.4071 16.8714 29.5795 17.2876 29.5795 17.7216C29.5795 18.122 29.3657 19.0667 28.457 19.9143C27.5614 20.751 25.9337 21.5398 23.0341 21.5398C21.665 21.5398 20.5795 21.3641 19.721 21.0903Z" fill="white"/>
</svg>
