<svg width="31" height="25" viewBox="0 0 31 25" fill="none" xmlns="http://www.w3.org/2000/svg">
<path d="M4.41863 6.8374C4.41863 6.19273 4.54561 5.55437 4.79231 4.95877C5.03902 4.36318 5.40062 3.822 5.85647 3.36615C6.31232 2.9103 6.85349 2.5487 7.44909 2.30199C8.04469 2.05529 8.68305 1.92831 9.32772 1.92831C9.97239 1.92831 10.6107 2.05529 11.2063 2.30199C11.8019 2.5487 12.3431 2.9103 12.799 3.36615C13.2548 3.822 13.6164 4.36318 13.8631 4.95877C14.1098 5.55437 14.2368 6.19273 14.2368 6.8374C14.2368 8.13937 13.7196 9.38802 12.799 10.3087C11.8783 11.2293 10.6297 11.7465 9.32772 11.7465C8.02575 11.7465 6.7771 11.2293 5.85647 10.3087C4.93584 9.38802 4.41863 8.13937 4.41863 6.8374ZM9.32772 0.837402C7.73642 0.837402 6.2103 1.46954 5.08508 2.59476C3.95986 3.71998 3.32772 5.2461 3.32772 6.8374C3.32772 8.4287 3.95986 9.95483 5.08508 11.08C6.2103 12.2053 7.73642 12.8374 9.32772 12.8374C10.919 12.8374 12.4451 12.2053 13.5704 11.08C14.6956 9.95483 15.3277 8.4287 15.3277 6.8374C15.3277 5.2461 14.6956 3.71998 13.5704 2.59476C12.4451 1.46954 10.919 0.837402 9.32772 0.837402ZM19.6914 8.47377C19.6914 7.60578 20.0362 6.77335 20.6499 6.1596C21.2637 5.54584 22.0961 5.20104 22.9641 5.20104C23.8321 5.20104 24.6645 5.54584 25.2783 6.1596C25.892 6.77335 26.2368 7.60578 26.2368 8.47377C26.2368 9.34175 25.892 10.1742 25.2783 10.7879C24.6645 11.4017 23.8321 11.7465 22.9641 11.7465C22.0961 11.7465 21.2637 11.4017 20.6499 10.7879C20.0362 10.1742 19.6914 9.34175 19.6914 8.47377ZM22.9641 4.11013C21.8068 4.11013 20.6969 4.56987 19.8785 5.38821C19.0602 6.20655 18.6004 7.31646 18.6004 8.47377C18.6004 9.63107 19.0602 10.741 19.8785 11.5593C20.6969 12.3777 21.8068 12.8374 22.9641 12.8374C24.1214 12.8374 25.2313 12.3777 26.0496 11.5593C26.868 10.741 27.3277 9.63107 27.3277 8.47377C27.3277 7.31646 26.868 6.20655 26.0496 5.38821C25.2313 4.56987 24.1214 4.11013 22.9641 4.11013ZM3.32772 15.0192C2.45974 15.0192 1.62731 15.364 1.01355 15.9778C0.399797 16.5915 0.0549927 17.424 0.0549927 18.2919C0.0549927 19.5094 0.509902 21.161 1.93027 22.5061C3.3539 23.8545 5.68408 24.8374 9.32663 24.8374C12.9692 24.8374 15.3015 23.8556 16.7252 22.5061C18.1455 21.161 18.6004 19.5094 18.6004 18.2919C18.6004 17.424 18.2556 16.5915 17.6419 15.9778C17.0281 15.364 16.1957 15.0192 15.3277 15.0192H3.32772ZM1.1459 18.2919C1.1459 17.7133 1.37577 17.1583 1.78494 16.7492C2.19411 16.34 2.74907 16.1101 3.32772 16.1101H15.3277C15.9064 16.1101 16.4613 16.34 16.8705 16.7492C17.2797 17.1583 17.5095 17.7133 17.5095 18.2919C17.5095 19.2563 17.1463 20.6047 15.9757 21.7141C14.8084 22.8203 12.775 23.7465 9.32772 23.7465C5.88045 23.7465 3.84699 22.8192 2.67972 21.7141C1.50917 20.6047 1.1459 19.2563 1.1459 18.2919ZM19.651 21.1152C19.5128 21.4439 19.3448 21.7712 19.147 22.097C20.1572 22.4429 21.4128 22.6556 22.9641 22.6556C26.0644 22.6556 27.9834 21.8079 29.1321 20.7356C30.2688 19.6752 30.6004 18.4381 30.6004 17.7465C30.6004 17.0232 30.3131 16.3295 29.8016 15.818C29.2902 15.3066 28.5965 15.0192 27.8732 15.0192H18.9866C19.279 15.3465 19.5288 15.713 19.7263 16.1101H27.8732C28.3072 16.1101 28.7234 16.2825 29.0303 16.5894C29.3371 16.8963 29.5095 17.3125 29.5095 17.7465C29.5095 18.1469 29.2957 19.0916 28.387 19.9392C27.4914 20.7759 25.8637 21.5647 22.9641 21.5647C21.595 21.5647 20.5095 21.389 19.651 21.1152Z" fill="#B0AAAA"/>
</svg>
